<svg xmlns="http://www.w3.org/2000/svg" xmlns:xlink="http://www.w3.org/1999/xlink" viewBox="0 0 568.61 41.21"><defs><style>.cls-1{fill:none;}.cls-2{fill:#547dbf;}.cls-3{fill:#ea4435;}.cls-4{fill:#f9bc15;}.cls-5{fill:#33a852;}.cls-6{clip-path:url(#clip-path);}.cls-7,.cls-8,.cls-9{fill-rule:evenodd;}.cls-7{fill:url(#linear-gradient);}.cls-8{fill:url(#linear-gradient-2);}.cls-10{clip-path:url(#clip-path-2);}.cls-11{fill:#3879be;}.cls-12{fill:#94bf47;}.cls-13{fill:#5e8e3e;}.cls-14{fill:#fff;}</style><clipPath id="clip-path" transform="translate(-0.4 -0.16)"><rect class="cls-1" width="142" height="34.5"/></clipPath><linearGradient id="linear-gradient" x1="8.76" y1="635.94" x2="36.18" y2="635.94" gradientTransform="translate(-8.36 -608.62)" gradientUnits="userSpaceOnUse"><stop offset="0" stop-color="#7156a4"/><stop offset="1" stop-color="#51caf5"/></linearGradient><linearGradient id="linear-gradient-2" x1="9.37" y1="616.88" x2="35.63" y2="616.88" gradientTransform="translate(-8.36 -608.62)" gradientUnits="userSpaceOnUse"><stop offset="0" stop-color="#c04f9d"/><stop offset="1" stop-color="#ffc908"/></linearGradient><clipPath id="clip-path-2" transform="translate(-0.4 -0.16)"><rect class="cls-1" x="166.61" y="4.52" width="137.93" height="32"/></clipPath></defs><g id="Layer_2" data-name="Layer 2"><g id="Layer_1-2" data-name="Layer 1"><g id="Layer_2-2" data-name="Layer 2"><path class="cls-2" d="M462.13,19.78v-4.3h14.22a14.87,14.87,0,0,1,.24,2.66c0,3.12-.86,7.1-3.68,9.84s-6.17,4.37-10.86,4.37a15.51,15.51,0,1,1-1.11-31q.56,0,1.11,0a15,15,0,0,1,10.71,4.3l-3.05,3a11.22,11.22,0,1,0-7.66,19.54,10.53,10.53,0,0,0,7.9-3.13,8.78,8.78,0,0,0,2.26-5.23Z" transform="translate(-0.4 -0.16)"/><path class="cls-3" d="M498.23,22.35a10,10,0,1,1-10.08-10A9.88,9.88,0,0,1,498.23,22Zm-4.46,0a5.64,5.64,0,1,0-11.25,0,5.64,5.64,0,1,0,11.25,0Z" transform="translate(-0.4 -0.16)"/><path class="cls-4" d="M520.1,22.35a10,10,0,1,1-10.08-10A9.88,9.88,0,0,1,520.1,22Zm-4.45,0a5.64,5.64,0,1,0-11.25,0,5.64,5.64,0,1,0,11.25,0Z" transform="translate(-0.4 -0.16)"/><path class="cls-2" d="M541,13V31c0,7.34-4.38,10.39-9.53,10.39a9.48,9.48,0,0,1-8.83-6l3.83-1.56a5.55,5.55,0,0,0,5,3.59c3.36,0,5.39-2.11,5.39-5.86V30.09h-.16a6.75,6.75,0,0,1-2.4,1.72,6.61,6.61,0,0,1-2.91.54,9.91,9.91,0,0,1-9.53-9.92c0-5.62,4.61-10.08,9.53-10.08a7,7,0,0,1,5.31,2.27h.16V13Zm-3.83,9.45c0-3.51-2.34-6.09-5.39-6.09a6.08,6.08,0,0,0,0,12.11c3,0,5.39-2.58,5.39-6Z" transform="translate(-0.4 -0.16)"/><path class="cls-5" d="M544.08,2.51h4.38v29.3h-4.38Z" transform="translate(-0.4 -0.16)"/><path class="cls-3" d="M565.41,25.64,568.85,28a10.07,10.07,0,0,1-8.36,4.37,9.76,9.76,0,0,1-9.92-9.6v-.4c0-5.93,4.3-10,9.45-10s7.74,4.14,8.52,6.41l.47,1.09L555.68,25.4a5,5,0,0,0,4.84,3.05A5.66,5.66,0,0,0,565.41,25.64ZM554.94,22l8.91-3.67a3.8,3.8,0,0,0-3.67-2.12,5.42,5.42,0,0,0-5.25,5.58C554.93,21.9,554.94,22,554.94,22Z" transform="translate(-0.4 -0.16)"/><g class="cls-6"><path class="cls-7" d="M.4,25.44l5.06-3.87c2.69,3.51,5.54,5.12,8.72,5.12s5.94-1.59,8.51-5.08l5.13,3.79c-3.7,5-8.31,7.67-13.64,7.67S4.22,30.44.4,25.44Z" transform="translate(-0.4 -0.16)"/><path class="cls-8" d="M14.17,8.6l-9,7.76L1,11.53,14.19.16,27.27,11.54l-4.18,4.81Z" transform="translate(-0.4 -0.16)"/><path d="M62.37,6.72h-5.1V28h5.1Z" transform="translate(-0.4 -0.16)"/><path class="cls-9" d="M47,28.06a10.43,10.43,0,0,1-7.54-2.92,10.15,10.15,0,0,1-3-7.6A10.44,10.44,0,0,1,46.58,6.82H47a11.06,11.06,0,0,1,8.83,4.07L52.5,14.37a7,7,0,0,0-5.17-2.57,5.41,5.41,0,0,0-4,1.62,5.61,5.61,0,0,0-1.58,4.09,5.58,5.58,0,0,0,1.58,4,5.45,5.45,0,0,0,4,1.59,6.74,6.74,0,0,0,5.29-2.65l3.45,3.32a10.92,10.92,0,0,1-3.82,3.09A11.42,11.42,0,0,1,47,28.06Z" transform="translate(-0.4 -0.16)"/><path class="cls-9" d="M70,8.42a2.76,2.76,0,1,1-2.76-2.77A2.77,2.77,0,0,1,70,8.42Zm-.21,4H64.68V28h5.1Z" transform="translate(-0.4 -0.16)"/><path class="cls-9" d="M79.68,28.09a8,8,0,0,1-5.9-2.25,7.81,7.81,0,0,1-2.26-5.79,7.72,7.72,0,0,1,2.28-5.8,8.1,8.1,0,0,1,6-2.25,7.72,7.72,0,0,1,7.33,4.48l-3.93,2.06a3.65,3.65,0,0,0-3.29-2,3.41,3.41,0,0,0-2.53,1,3.48,3.48,0,0,0-1,2.48,3.4,3.4,0,0,0,3.27,3.53h.18a3.6,3.6,0,0,0,3.28-2L87,23.89A8.06,8.06,0,0,1,79.68,28.09Z" transform="translate(-0.4 -0.16)"/><path class="cls-9" d="M93.4,6.72H88.3V28h5.1V22.56L94,22l4.66,6h5.93l-7.16-9.17,6.81-6.35H98l-4.6,4.3Z" transform="translate(-0.4 -0.16)"/><path class="cls-9" d="M105.51,19.94V6.72h5.32V19.64c0,2.31,1.34,3.43,3.29,3.43a3.11,3.11,0,0,0,3.31-2.9,3.15,3.15,0,0,0,0-.53V6.72h5.31V19.94c0,6.07-4.26,8.35-8.61,8.35S105.51,26,105.51,19.94Z" transform="translate(-0.4 -0.16)"/><path class="cls-9" d="M134.21,28.39c4.1,0,7.43-3.61,7.43-8.07s-3.33-8.07-7.43-8.07a7,7,0,0,0-4.47,1.62v-1.4h-4.89V34.35h4.89V26.78A7,7,0,0,0,134.21,28.39Zm-4.47-8.06h0A3.51,3.51,0,1,1,133.25,24a3.56,3.56,0,0,1-3.51-3.61v0Z" transform="translate(-0.4 -0.16)"/></g><g class="cls-10"><path class="cls-11" d="M205.32,11.32H212c5.7,0,9.31,3.68,9.31,9.42s-3.61,9.41-9.31,9.41h-6.66Zm6.51,15.4c3.59,0,5.56-2.3,5.56-6s-2-6-5.56-6h-2.61v12Z" transform="translate(-0.4 -0.16)"/><path class="cls-11" d="M231.38,20.25a3.72,3.72,0,0,0-1.91-.45,2.49,2.49,0,0,0-2.61,1.93v8.49h-3.79V16.45h3.81V17.8A3.52,3.52,0,0,1,230,16.14a3.87,3.87,0,0,1,1.43.24Z" transform="translate(-0.4 -0.16)"/><path class="cls-11" d="M239,30.49c-4,0-6.73-3-6.73-7.16S235,16.14,239,16.14s6.7,2.94,6.7,7.19S243,30.49,239,30.49Zm0-11.11c-1.91,0-2.94,1.65-2.94,3.95s1,3.94,2.94,3.94,2.94-1.66,2.94-3.94S240.87,19.38,239,19.38Z" transform="translate(-0.4 -0.16)"/><path class="cls-11" d="M251.14,35.25h-3.81V16.45h3.81v1.14a4.71,4.71,0,0,1,3.43-1.43c4,0,6.26,3.31,6.26,7.19s-2.26,7.15-6.26,7.15a4.71,4.71,0,0,1-3.43-1.43Zm0-9.68a2.86,2.86,0,0,0,2.57,1.6c2.06,0,3.29-1.65,3.29-3.84s-1.23-3.86-3.29-3.86a2.89,2.89,0,0,0-2.57,1.6Z" transform="translate(-0.4 -0.16)"/><path class="cls-11" d="M266.31,30.17h-3.85V10.25h3.85v7.37a4.74,4.74,0,0,1,3.44-1.43c4,0,6.23,3.25,6.23,7.19s-2.24,7.15-6.23,7.15a4.74,4.74,0,0,1-3.44-1.43Zm0-4.6a2.79,2.79,0,0,0,2.57,1.6c2.06,0,3.29-1.65,3.29-3.84s-1.23-3.86-3.29-3.86a2.89,2.89,0,0,0-2.57,1.6Z" transform="translate(-0.4 -0.16)"/><path class="cls-11" d="M284.07,30.52c-4,0-6.73-2.94-6.73-7.15s2.74-7.19,6.73-7.19,6.72,2.94,6.72,7.19S288.05,30.52,284.07,30.52Zm0-11.11c-1.91,0-2.94,1.66-2.94,4s1.05,3.93,2.94,3.93S287,25.69,287,23.41,286,19.41,284.07,19.41Z" transform="translate(-0.4 -0.16)"/><path class="cls-11" d="M299.34,23.09l5,7.1h-4.21l-2.94-4.3-3,4.3h-4l4.94-7-4.65-6.71h4.2l2.65,3.9,2.69-3.9h4Z" transform="translate(-0.4 -0.16)"/><path class="cls-11" d="M176.68,4.87l-9.88,6.38,6.88,5.53,10-6.16Z" transform="translate(-0.4 -0.16)"/><path class="cls-11" d="M166.8,22.19l9.88,6.51L183.59,23l-10-6.17Z" transform="translate(-0.4 -0.16)"/><path class="cls-11" d="M183.62,23l6.92,5.75,9.87-6.45-6.84-5.48Z" transform="translate(-0.4 -0.16)"/><path class="cls-11" d="M200.41,11.3l-9.87-6.43-6.92,5.75,9.95,6.16Z" transform="translate(-0.4 -0.16)"/><path class="cls-11" d="M183.68,24.18l-7,5.75-3-1.93v2.17l10,5.94,9.9-5.94V28l-3,1.93Z" transform="translate(-0.4 -0.16)"/></g><path class="cls-12" d="M346.16,9.19a.27.27,0,0,0-.27-.25h-2.33s-1.87-1.79-2.05-2a.76.76,0,0,0-.67-.09l-1,.3a6.16,6.16,0,0,0-.44-1.1,3.18,3.18,0,0,0-2.72-2h-.25l-.11-.12a2.47,2.47,0,0,0-2-.78c-1.5,0-3,1.14-4.25,3.08a12.71,12.71,0,0,0-1.7,4.4c-1.73.54-2.95.92-3,.92-.88.27-.9.29-1,1.12C324.32,13.31,322,31,322,31l19.24,3.33,8.33-2.07S346.19,9.34,346.16,9.19Zm-7.23-1.78c-.45.14-.95.29-1.48.47A8.51,8.51,0,0,0,337,5.14C338.14,5.32,338.68,6.62,338.93,7.41Zm-2.5.77-3.21,1A7.79,7.79,0,0,1,334.84,6a3.39,3.39,0,0,1,1.08-.79A6.54,6.54,0,0,1,336.43,8.18Zm-2.06-4a1.43,1.43,0,0,1,.9.25,3.88,3.88,0,0,0-1.17.92,8.76,8.76,0,0,0-2,4.18l-2.63.81c.54-2.43,2.58-6.09,4.9-6.09Z" transform="translate(-0.4 -0.16)"/><path class="cls-13" d="M345.89,8.94h-2.33s-1.87-1.79-2.05-2a.41.41,0,0,0-.24-.11V34.4l8.33-2.07L346.19,9.19A.33.33,0,0,0,345.89,8.94Z" transform="translate(-0.4 -0.16)"/><path class="cls-14" d="M336.68,13.25l-1,3.62a5.45,5.45,0,0,0-2.36-.41c-1.89.12-1.89,1.31-1.89,1.6.12,1.62,4.36,2,4.61,5.78.18,3-1.57,5-4.14,5.19a6.35,6.35,0,0,1-4.74-1.64l.66-2.77a5.84,5.84,0,0,0,3.05,1.19A1.19,1.19,0,0,0,332,24.6v-.07c-.14-2.11-3.6-2-3.82-5.46-.18-2.92,1.73-5.86,6-6.13A5,5,0,0,1,336.68,13.25Z" transform="translate(-0.4 -0.16)"/><path d="M360.88,20.94c-1-.52-1.46-1-1.46-1.57,0-.77.7-1.26,1.78-1.26a6.47,6.47,0,0,1,2.38.51l.88-2.69s-.81-.63-3.2-.63c-3.32,0-5.64,1.91-5.64,4.58,0,1.53,1.08,2.68,2.52,3.51,1.17.65,1.57,1.12,1.57,1.82s-.58,1.3-1.66,1.3a7.55,7.55,0,0,1-3.12-.83l-.95,2.7a7.16,7.16,0,0,0,3.76.94c3.41,0,5.88-1.68,5.88-4.72C363.6,23,362.37,21.79,360.88,20.94Z" transform="translate(-0.4 -0.16)"/><path d="M374.5,15.25a5.11,5.11,0,0,0-4,2h-.05l1.46-7.64h-3.79l-3.71,19.46h3.8l1.25-6.65c.5-2.51,1.8-4.07,3-4.07.86,0,1.2.59,1.2,1.42a8.72,8.72,0,0,1-.16,1.69l-1.44,7.61h3.8l1.47-7.82a14.94,14.94,0,0,0,.27-2.5C377.62,16.56,376.5,15.25,374.5,15.25Z" transform="translate(-0.4 -0.16)"/><path d="M386.23,15.25c-4.58,0-7.62,4.14-7.62,8.74a5,5,0,0,0,4.65,5.32,3.88,3.88,0,0,0,.59,0c4.49,0,7.53-4,7.53-8.74C391.4,17.86,389.8,15.25,386.23,15.25Zm-1.87,11.17c-1.3,0-1.84-1.1-1.84-2.49,0-2.18,1.16-5.68,3.16-5.68,1.35,0,1.8,1.17,1.8,2.29C387.51,22.83,386.36,26.42,384.36,26.42Z" transform="translate(-0.4 -0.16)"/><path d="M401.13,15.25a5.22,5.22,0,0,0-4,2.27h-.05l.23-2h-3.38c-.15,1.37-.47,3.48-.76,5.05l-2.65,13.94h3.8l1.05-5.64h.09a4.55,4.55,0,0,0,2.23.49c4.47,0,7.39-4.58,7.39-9.21C405.06,17.55,403.91,15.25,401.13,15.25Zm-3.64,11.22a2.4,2.4,0,0,1-1.58-.57l.63-3.55c.45-2.38,1.69-4,3-4s1.53,1.08,1.53,2.09C401.08,23,399.62,26.47,397.49,26.47Z" transform="translate(-0.4 -0.16)"/><path d="M410.5,9.79A2.17,2.17,0,0,0,408.32,12V12a1.76,1.76,0,0,0,1.62,1.9h.18a2.15,2.15,0,0,0,2.23-2.07V11.7a1.82,1.82,0,0,0-1.73-1.91Z" transform="translate(-0.4 -0.16)"/><path d="M405.17,29.05H409l2.58-13.48h-3.82Z" transform="translate(-0.4 -0.16)"/><path d="M421.24,15.55h-2.65l.13-.63c.23-1.31,1-2.45,2.27-2.45a3.9,3.9,0,0,1,1.22.2l.74-3a4.88,4.88,0,0,0-2.07-.34,5.75,5.75,0,0,0-3.73,1.26,7.08,7.08,0,0,0-2.2,4.32l-.11.63h-1.78l-.56,2.87h1.77l-2,10.65h3.8l2-10.65h2.61Z" transform="translate(-0.4 -0.16)"/><path d="M430.41,15.57s-2.38,6-3.44,9.28h-.05c-.06-1.06-.94-9.28-.94-9.28h-4L424.27,28a.78.78,0,0,1-.09.63,6.76,6.76,0,0,1-2.06,2.29A8.74,8.74,0,0,1,420,32L421,35.19a8.65,8.65,0,0,0,3.73-2.07,25.28,25.28,0,0,0,5-7.55l4.65-10Z" transform="translate(-0.4 -0.16)"/></g></g></g></svg>