<svg xmlns="http://www.w3.org/2000/svg" width="75" height="45" fill="none" viewBox="0 0 75 45">
  <path fill="#1C1D4E" d="M64.488 41.556V22.613s-14.612 1.863-27.194 8.102c-12.582-6.239-27.195-8.102-27.195-8.102v18.943C5.811 42.516 2.341 43.673 0 45c7.899-2.484 21.637-4.15 37.266-4.15 15.628 0 29.366 1.637 37.265 4.15-2.313-1.327-5.755-2.484-10.043-3.444Z"/>
  <path fill="#313273" d="M14.077 20.58v2.682c5.19.988 14.67 3.19 23.217 7.453-10.1-7.933-23.217-10.135-23.217-10.135Zm46.462 0s-13.118 2.202-23.217 10.135c8.548-4.235 18.026-6.465 23.217-7.453V20.58Z"/>
  <path fill="#313274" d="M37.322 20.834a8.839 8.839 0 0 1-2.313 3.05l2.285 3.98 2.341-3.98a8.505 8.505 0 0 1-2.313-3.05Zm-6.94-2.964a2.8 2.8 0 0 0 2.793-2.795 2.8 2.8 0 0 0-2.793-2.795 2.8 2.8 0 0 0-2.792 2.795 2.782 2.782 0 0 0 2.792 2.795Zm-.93-4.743a1.072 1.072 0 1 1 0 2.144 1.072 1.072 0 0 1 0-2.144Zm11.988 1.948c0 1.525 1.242 2.795 2.765 2.795a2.8 2.8 0 0 0 2.793-2.795 2.8 2.8 0 0 0-2.793-2.795c-1.495.029-2.764 1.27-2.764 2.795Zm3.104-.875a1.072 1.072 0 1 1-2.144.002 1.072 1.072 0 0 1 2.144-.002Z"/>
  <path fill="#313274" d="M25.05 20.552a7.599 7.599 0 0 0 5.332 2.174c3.047 0 5.699-1.807 6.94-4.404a7.654 7.654 0 0 0 6.94 4.404c2.087 0 3.95-.847 5.331-2.174.593.847 1.1 1.75 1.524 2.682 1.72-.65 3.3-1.13 4.683-1.525-.903-1.863-2.313-3.528-4.09-4.94a8.42 8.42 0 0 0 .197-1.694 7.64 7.64 0 0 0-.705-3.19 14.252 14.252 0 0 0-2.398-4.347L48.747 0l-6.263 2.936a14.536 14.536 0 0 0-5.162-.932c-1.777 0-3.526.31-5.162.932L25.869 0l-.057 7.538c-1.015 1.298-1.833 2.738-2.37 4.29-.45.989-.733 2.09-.733 3.247 0 .593.057 1.158.198 1.694-1.778 1.412-3.16 3.077-4.063 4.94a80.3 80.3 0 0 1 4.683 1.525 16.81 16.81 0 0 1 1.524-2.682Zm25.22-5.477a6.046 6.046 0 0 1-6.036 6.042 6.046 6.046 0 0 1-6.037-6.042 6.046 6.046 0 0 1 6.037-6.041c3.328.028 6.036 2.738 6.036 6.041ZM37.294 3.614c3.836 0 7.335 1.665 9.732 4.347a7.833 7.833 0 0 0-2.82-.536c-3.047 0-5.7 1.806-6.94 4.404a7.654 7.654 0 0 0-6.94-4.404c-.987 0-1.947.197-2.793.536 2.454-2.682 5.924-4.347 9.76-4.347Zm-6.912 5.448a6.046 6.046 0 0 1 6.037 6.042 6.046 6.046 0 0 1-6.037 6.04 6.046 6.046 0 0 1-6.037-6.04 6.046 6.046 0 0 1 6.037-6.042Z"/>
</svg>
