<svg xmlns="http://www.w3.org/2000/svg" width="600" height="600" fill="none" viewBox="0 0 600 600">
  <g filter="url(#a)">
    <path fill="#F1B1D5" fill-opacity=".4" d="M306 470.4c-98.748 0-178.8-80.32-178.8-179.4 0-99.08 80.052-179.4 178.8-179.4 98.749 0 178.8 80.32 178.8 179.4 0 99.08-80.051 179.4-178.8 179.4Z"/>
  </g>
  <path fill="#F1B1D5" d="M302.722 451.945c-88.948 0-161.055-72.108-161.055-161.056 0-88.949 72.107-161.056 161.055-161.056 88.949 0 161.056 72.107 161.056 161.056 0 88.948-72.107 161.056-161.056 161.056Z"/>
  <path fill="#F48914" stroke="#17005E" stroke-linecap="round" stroke-linejoin="round" stroke-miterlimit="10" stroke-width="1.5" d="M107.889 233.778 134 259.889l29.667-8.611c1-.278 1.333-1.556.611-2.334l-23.834-23.833a1.391 1.391 0 0 0-1.388-.333l-31.167 9Z"/>
  <path fill="#17005E" stroke="#17005E" stroke-linecap="round" stroke-linejoin="round" stroke-miterlimit="10" stroke-width="1.5" d="m161 249-20.889-20.889L133 256.389 161 249Z"/>
  <path fill="#DEFAE5" stroke="#17005E" stroke-linecap="round" stroke-linejoin="round" stroke-miterlimit="10" stroke-width="1.5" d="M159.556 247.556c-2.278-2.278-5.667-3.112-8.723-2.223l-.444.111a39.438 39.438 0 0 0-16.556 9.889l-2.166 2.167 29.389-8.5-1.5-1.444Z"/>
  <path fill="#DEFAE5" stroke="#17005E" stroke-linecap="round" stroke-linejoin="round" stroke-miterlimit="10" stroke-width="1.5" d="M142.167 230.111c2.278 2.278 3.111 5.667 2.222 8.722l-.111.445a39.435 39.435 0 0 1-9.889 16.555L132.222 258l8.5-29.389 1.445 1.5Z"/>
  <path fill="#F48914" stroke="#17005E" stroke-linecap="round" stroke-linejoin="round" stroke-miterlimit="10" stroke-width="1.5" d="M107.167 233.056 134 259.889l9-31.111c.167-.5 0-1-.333-1.389l-24.611-24.611c-.723-.722-2-.445-2.334.611l-8.555 29.667Z"/>
  <path fill="#F6A143" stroke="#17005E" stroke-linecap="round" stroke-linejoin="round" stroke-miterlimit="10" stroke-width="1.5" d="m113.333 233 16.834 16.833c.5.5 1.389.278 1.611-.389l5.722-19.722c.167-.555 0-1.222-.444-1.611l-16.834-16.833c-.5-.5-1.389-.278-1.611.389l-5.722 19.722c-.111.555 0 1.167.444 1.611Z"/>
  <path fill="#F48914" stroke="#17005E" stroke-linecap="round" stroke-linejoin="round" stroke-miterlimit="10" stroke-width="1.5" d="m107.058 232.418 28.441 28.441-1.925 1.925-28.441-28.441 1.925-1.925Z"/>
  <path fill="#F48914" stroke="#17005E" stroke-linecap="round" stroke-linejoin="round" stroke-miterlimit="10" stroke-width="1.5" d="m107.057 232.408 25.456 25.455-1.925 1.925-25.456-25.455 1.925-1.925Z"/>
  <path fill="#17005E" stroke="#17005E" stroke-linecap="round" stroke-linejoin="round" stroke-miterlimit="10" stroke-width="1.5" d="m490.977 382.419 37.388-24.889 2-29.723c.056-1-1.166-1.388-2.222-.666l-34.222 22.722c-.5.333-.833.833-.889 1.333l-2.055 31.223Z"/>
  <path fill="#DEFAE5" stroke="#17005E" stroke-linecap="round" stroke-linejoin="round" stroke-miterlimit="10" stroke-width="1.5" d="m526.977 330.363-29.945 19.889 27.278 8.167 2.667-28.056Z"/>
  <path fill="#DEFAE5" stroke="#17005E" stroke-linecap="round" stroke-linejoin="round" stroke-miterlimit="10" stroke-width="1.5" d="M524.921 331.752c-3.278 2.167-5.444 5.5-5.611 8.611v.444c-.389 6.278 1.111 12.056 4.222 16.778l1.5 2.222 2-29.444-2.111 1.389Z"/>
  <path fill="#DEFAE5" stroke="#17005E" stroke-linecap="round" stroke-linejoin="round" stroke-miterlimit="10" stroke-width="1.5" d="M490.588 343.03c3.277-2.834 7.777-3.723 11.666-2.389l.556.222c7.833 2.722 14.667 7.444 20 13.611l2.5 2.889-36.833-12.556 2.111-1.777Z"/>
  <path fill="#45337E" stroke="#17005E" stroke-linecap="round" stroke-linejoin="round" stroke-miterlimit="10" stroke-width="1.5" d="m489.865 383.085 38.5-25.555-39.888-14.723a2.905 2.905 0 0 0-2.445.278l-33.667 22.389c-1.5 1-1.222 3.333.445 3.945l37.055 13.666Z"/>
  <path fill="#17005E" stroke="#17005E" stroke-linecap="round" stroke-linejoin="round" stroke-miterlimit="10" stroke-width="1.5" d="m488.421 377.752 26.778-17.778-28.389-10.889-26.778 17.834 28.389 10.833Z"/>
  <path fill="#45337E" stroke="#17005E" stroke-linecap="round" stroke-linejoin="round" stroke-miterlimit="10" stroke-width="1.5" d="m489.037 383.118 40.812-27.122 1.845 2.776-40.812 27.122-1.845-2.776Z"/>
  <path fill="#17005E" stroke="#17005E" stroke-linecap="round" stroke-linejoin="round" stroke-miterlimit="10" stroke-width="1.5" d="m489.061 383.127 36.509-24.262 1.845 2.776-36.509 24.262-1.845-2.776Z"/>
  <path fill="#E556A8" stroke="#17005E" stroke-linecap="round" stroke-linejoin="round" stroke-miterlimit="10" stroke-width="1.5" d="M177.333 457.833h38.556v17.834h-38.556v-17.834ZM305.889 498l4.333 15.389h37.834L344.5 498h-38.611Z"/>
  <path fill="#2FE055" stroke="#17005E" stroke-linecap="round" stroke-linejoin="round" stroke-miterlimit="10" stroke-width="1.5" d="M351.389 535.5h-75.222c-.889 0-1.611-.778-1.5-1.667a21.278 21.278 0 0 1 18.055-18.5l13.389-1.944 4.889-5.111a5.926 5.926 0 0 1 4.278-1.834h8.611a6.03 6.03 0 0 1 5.5 3.612l.944 2.222 10.611-.111 5.223-3.111c1.444-.834 3.277-.112 3.722 1.5l5.389 19.833c.666 2.611-1.278 5.111-3.889 5.111Z"/>
  <path fill="#F48914" stroke="#17005E" stroke-linecap="round" stroke-linejoin="round" stroke-miterlimit="10" stroke-width="1.5" d="m189.778 341.333 68.611-54.777h87.389l-1.334 27.166a144.273 144.273 0 0 1-5.944 34.722l-16.167 54 26.611 95.612h-43.055l-28.111-88.5a28.345 28.345 0 0 1-.778-14.445l11.833-58.5-7.944-6-59.945 45.889v81.444h-43.555v-90.777c-.056-10.056 4.555-19.611 12.389-25.834Z"/>
  <path fill="#17005E" stroke="#17005E" stroke-linecap="round" stroke-linejoin="round" stroke-miterlimit="10" stroke-width="1.5" d="M345.778 286.556 345.167 299l-63.723-12.444h64.334Zm-84.167 28.222 19.222 15.778-17.111 13.055-2.111-28.833Zm54.278 99.333 6.5-11.722 12.778 46.111-19.278-34.389Zm-105-42.167 10 4.445v38.889l-10-43.334Zm95 126.056H344.5l1.444 6.333L305.889 498Zm-128.556-40.167 38.556 7.667v-7.667h-38.556Zm98.834 77.667c-.889 0-1.611-.778-1.5-1.667.444-3.833 1.944-7.333 4.166-10.277h5.111l5.889 5.888h55l2.834-5.722 5.5-.889 2.055 7.611c.667 2.556-1.222 5.056-3.889 5.056h-75.166Z"/>
  <path fill="#2FE055" stroke="#17005E" stroke-linecap="round" stroke-linejoin="round" stroke-miterlimit="10" stroke-width="1.5" d="M218.889 497.667h-75.222c-.889 0-1.611-.778-1.5-1.667a21.277 21.277 0 0 1 18.055-18.5l13.389-1.944 4.889-5.112a5.93 5.93 0 0 1 4.278-1.833h8.555a6.03 6.03 0 0 1 5.5 3.611l.945 2.222 10.611-.111 5.222-3.111c1.445-.833 3.278-.111 3.722 1.5l5.389 19.834c.722 2.611-1.222 5.111-3.833 5.111Z"/>
  <path fill="#17005E" stroke="#17005E" stroke-linecap="round" stroke-linejoin="round" stroke-miterlimit="10" stroke-width="1.5" d="M143.667 497.667c-.889 0-1.611-.778-1.5-1.667.444-3.833 1.944-7.333 4.166-10.278h5.111l5.889 5.889h55l2.834-5.722 5.5-.889 2.055 7.611c.667 2.556-1.222 5.056-3.889 5.056h-75.166Z"/>
  <path fill="#17005E" d="M282 385.167c9.222 8.222 7.667 23.111-3 29.277-.444.278-.833-.444-.389-.666 10.278-5.945 11.667-20.167 2.833-28.056-.389-.333.167-.889.556-.555Zm-90.111-43.945c.667 6.222.167 13.111-2.556 18.778-2 4.167-5.611 8.056-10.611 7.722-.5-.055-.5-.833 0-.778 5.278.334 8.834-4.388 10.556-8.777 2.055-5.334 2.444-11.334 1.833-16.945-.055-.5.722-.5.778 0Z"/>
  <path stroke="#17005E" stroke-linecap="round" stroke-linejoin="round" d="M337.722 292.278s-.111.666-.389 1.889"/>
  <path stroke="#17005E" stroke-dasharray="7 7" stroke-linecap="round" stroke-linejoin="round" d="M336.556 298c-1.723 8.556-5.445 26.5-11.167 52.167-9.111 40.722-9.445 63.944-9.445 63.944l18.778 80.111"/>
  <path stroke="#17005E" stroke-linecap="round" stroke-linejoin="round" d="m335.111 496.111.445 1.889"/>
  <path stroke="#17005E" stroke-dasharray="7 7" stroke-linecap="round" stroke-linejoin="round" stroke-miterlimit="10" d="m270.222 325.5-59.333 46.444-1.778 85.334"/>
  <path fill="#17005E" d="M325.111 292.278c-.667 6.778 2.167 13.5 7.611 17.611.389.278 0 1-.389.667a20.62 20.62 0 0 1-8-18.278c.056-.5.834-.5.778 0Zm-29.611-3a85.753 85.753 0 0 0-9.056 21c-2 7.055-2.722 14.444-5.611 21.278-.222.444-.889.055-.666-.389 3.055-7.167 3.722-15 5.944-22.389 2.056-7 5.056-13.667 8.778-19.889.222-.445.889-.056.611.389Z"/>
  <path fill="#17005E" d="M288.667 288.278c-3.111 5.055-9.5 15.611-2.389 20.111.444.278.055.944-.389.667-7.611-4.834-1.278-15.778 2.111-21.167.278-.445.944-.056.667.389Z"/>
  <path stroke="#17005E" stroke-linecap="round" stroke-linejoin="round" stroke-miterlimit="10" stroke-width="3" d="M181.611 311.944h244.278c2.778 0 5-2.222 5-5V75.5c0-2.778-2.222-5-5-5H181.611a4.98 4.98 0 0 0-5 5v231.444c0 2.778 2.278 5 5 5Z"/>
  <path stroke="#17005E" stroke-linecap="round" stroke-linejoin="round" stroke-miterlimit="10" stroke-width="1.5" d="M430.889 95.5H176.611"/>
  <path fill="#F5A3D2" stroke="#17005E" stroke-linecap="round" stroke-linejoin="round" stroke-miterlimit="10" stroke-width="1.5" d="M199.833 88.556h9.723c.611 0 1.055-.5 1.055-1.056v-9.722c0-.611-.5-1.056-1.055-1.056h-9.723c-.611 0-1.055.5-1.055 1.056V87.5c-.056.556.444 1.056 1.055 1.056Z"/>
  <path fill="#F5A3D2" stroke="#17005E" stroke-linecap="round" stroke-linejoin="round" stroke-miterlimit="10" stroke-width="1.5" d="M203.611 81.556H208v4.388h-4.389v-4.388Z"/>
  <path fill="#F5A3D2" stroke="#17005E" stroke-linecap="round" stroke-linejoin="round" stroke-miterlimit="10" stroke-width="1.5" d="M201.333 79.333v4.334h2.278v-2.111h2.111v-2.223h-4.389Zm14.167 9.223h9.722c.611 0 1.056-.5 1.056-1.056v-9.722c0-.611-.5-1.056-1.056-1.056H215.5c-.611 0-1.055.5-1.055 1.056V87.5c-.056.556.444 1.056 1.055 1.056Z"/>
  <path stroke="#17005E" stroke-linecap="round" stroke-linejoin="round" stroke-miterlimit="10" stroke-width="1.5" d="M224.111 85.333h-7.555"/>
  <path fill="#F5A3D2" stroke="#17005E" stroke-linecap="round" stroke-linejoin="round" stroke-miterlimit="10" stroke-width="1.5" d="M184.167 88.556h9.722c.611 0 1.055-.5 1.055-1.056v-9.722c0-.611-.5-1.056-1.055-1.056h-9.722c-.611 0-1.056.5-1.056 1.056V87.5c-.055.556.445 1.056 1.056 1.056Z"/>
  <path stroke="#17005E" stroke-linecap="round" stroke-linejoin="round" stroke-miterlimit="10" stroke-width="1.5" d="m192.944 78.667-7.888 7.944m0-7.944 7.888 7.944"/>
  <path fill="#82EC99" stroke="#17005E" stroke-linecap="round" stroke-linejoin="round" stroke-miterlimit="10" stroke-width="1.5" d="M417.278 334.444h-76.389a2.726 2.726 0 0 1-2.722-2.722v-7.944c0-1.5 1.222-2.722 2.722-2.722h76.389c1.5 0 2.722 1.222 2.722 2.722v7.944c0 1.5-1.222 2.722-2.722 2.722Z"/>
  <path fill="#DEFAE5" stroke="#17005E" stroke-linecap="round" stroke-linejoin="round" stroke-miterlimit="10" stroke-width="1.5" d="M359.833 332.5h-21.666v-9.556h21.666c1.223 0 2.278 1 2.278 2.278v5c-.055 1.278-1.055 2.278-2.278 2.278Z"/>
  <path fill="#F48914" stroke="#17005E" stroke-linecap="round" stroke-linejoin="round" stroke-miterlimit="10" stroke-width="1.5" d="M415.488 332.499h-3.723v-9.555h3.723v9.555Z"/>
  <path fill="#17005E" stroke="#17005E" stroke-linecap="round" stroke-linejoin="round" stroke-miterlimit="10" stroke-width="1.5" d="M370.034 332.499h-3.723v-9.555h3.723v9.555Z"/>
  <path stroke="#17005E" stroke-linecap="round" stroke-linejoin="round" stroke-miterlimit="10" stroke-width="1.5" d="M338.167 324.833h23.889m-23.889 1.889h23.889m-23.889 1.834h23.889m-23.889 1.833h23.889"/>
  <path fill="#E556A8" d="M354.389 325.111V330l2.5-1.889 2.555 1.889v-5.056h-5.055"/>
  <path stroke="#17005E" stroke-linecap="round" stroke-linejoin="round" stroke-miterlimit="10" stroke-width="1.5" d="M354.389 325.111V330l2.5-1.889 2.555 1.889v-5.056h-5.055"/>
  <path fill="#17005E" stroke="#17005E" stroke-linecap="round" stroke-linejoin="round" stroke-miterlimit="10" stroke-width="1.5" d="M414.111 321h-76.389a2.726 2.726 0 0 1-2.722-2.722v-13.334c0-1.5 1.222-2.722 2.722-2.722h76.389c1.5 0 2.722 1.222 2.722 2.722v13.334c0 1.5-1.222 2.722-2.722 2.722Z"/>
  <path fill="#DEFAE5" stroke="#17005E" stroke-linecap="round" stroke-linejoin="round" stroke-miterlimit="10" stroke-width="1.5" d="M346.5 318.278h-11.555v-13.334H346.5c1.222 0 2.278 1 2.278 2.278v8.834c0 1.222-1 2.222-2.278 2.222Z"/>
  <path fill="#FDE7D0" stroke="#17005E" stroke-linecap="round" stroke-linejoin="round" stroke-miterlimit="10" stroke-width="1.5" d="M412.331 318.263h-3.722V304.93h3.722v13.333Z"/>
  <path fill="#EF76BB" stroke="#17005E" stroke-linecap="round" stroke-linejoin="round" stroke-miterlimit="10" stroke-width="1.5" d="M404.573 314.541h-51.222v-5.833h51.222v5.833Z"/>
  <path stroke="#17005E" stroke-linecap="round" stroke-linejoin="round" stroke-miterlimit="10" stroke-width="1.5" d="M334.945 307.611h13.833m-13.833 2.556h13.833m-13.833 2.611h13.833m-13.833 2.555h13.833"/>
  <path fill="#F48914" d="M340.389 307.389v5.444l2.555-2.055 2.556 2.055v-5.611h-5.111"/>
  <path stroke="#17005E" stroke-linecap="round" stroke-linejoin="round" stroke-miterlimit="10" stroke-width="1.5" d="M340.389 307.389v5.444l2.555-2.055 2.556 2.055v-5.611h-5.111"/>
  <path fill="#F48914" stroke="#17005E" stroke-linecap="round" stroke-linejoin="round" stroke-miterlimit="10" stroke-width="1.5" d="M419.056 302.222h-76.389a2.727 2.727 0 0 1-2.723-2.722v-7.667c0-1.5 1.223-2.722 2.723-2.722h76.389c1.5 0 2.722 1.222 2.722 2.722v7.611c0 1.556-1.222 2.778-2.722 2.778Z"/>
  <path fill="#DEFAE5" stroke="#17005E" stroke-linecap="round" stroke-linejoin="round" stroke-miterlimit="10" stroke-width="1.5" d="M361.611 300.333h-21.667V291h21.667c1.222 0 2.278 1 2.278 2.278v4.778c0 1.222-1.056 2.277-2.278 2.277Z"/>
  <path fill="#8636CC" stroke="#17005E" stroke-linecap="round" stroke-linejoin="round" stroke-miterlimit="10" stroke-width="1.5" d="M368.111 293.278h41.445v4.778h-41.445v-4.778Z"/>
  <path fill="#E556A8" stroke="#17005E" stroke-linecap="round" stroke-linejoin="round" stroke-miterlimit="10" stroke-width="1.5" d="M413.833 294.111H417v3.111h-3.167v-3.111Z"/>
  <path stroke="#17005E" stroke-linecap="round" stroke-linejoin="round" stroke-miterlimit="10" stroke-width="1.5" d="M339.944 292.833h23.945m-23.945 1.834h23.945m-23.945 1.777h23.945m-23.945 1.834h23.945"/>
  <path fill="#E556A8" d="M350.167 298.389v3.778l-2.556-1.445-2.5 1.445v-3.945h5.056"/>
  <path stroke="#17005E" stroke-linecap="round" stroke-linejoin="round" stroke-miterlimit="10" stroke-width="1.5" d="M350.167 298.389v3.778l-2.556-1.445-2.5 1.445v-3.945h5.056"/>
  <path fill="#E556A8" stroke="#17005E" stroke-linecap="round" stroke-linejoin="round" stroke-miterlimit="10" stroke-width="1.5" d="m368.944 319.333-7.166 9.389c-1.056 1.389-1.167 3.334-.222 4.834 1.555 2.5 5.055 2.833 7.055.777l5.833-6.055-5.5-8.945Z"/>
  <path fill="#17005E" stroke="#17005E" stroke-linecap="round" stroke-linejoin="round" stroke-miterlimit="10" stroke-width="1.5" d="m365.222 324.167 3.722-4.834 5.556 8.945-4.778 4.944-4.5-9.055Z"/>
  <path fill="#E556A8" stroke="#17005E" stroke-linecap="round" stroke-linejoin="round" stroke-miterlimit="10" stroke-width="1.5" d="m372.722 303.889-5-76.445L381.278 193l13.5 10.222c8.333 6.334 12.333 16.834 10.222 27.111L389.833 305l1.389.667c2.667 1.333 4.445 4.055 4.611 7l.834 16.555-16.056 4.834 7.278 9.055-.833.556c-2.778 1.777-6.389 1.666-9-.389l-4.445-3.445c-2.055-1.666-3.389-4-3.833-6.611l-1.611-10.166a9.949 9.949 0 0 1 .333-4.778l4.222-14.389Z"/>
  <path fill="#17005E" stroke="#17005E" stroke-linecap="round" stroke-linejoin="round" stroke-miterlimit="10" stroke-width="1.5" d="m367.722 227.5 27.056-24.278-5-3.5-22.056 27.778Z"/>
  <path fill="#E556A8" d="m378.278 333.056 8.555 10.055c1 1.167 2.5 1.667 4 1.333 2.611-.611 3.889-3.555 2.611-5.888l-4.777-8.5"/>
  <path stroke="#17005E" stroke-linecap="round" stroke-linejoin="round" stroke-miterlimit="10" stroke-width="1.5" d="m378.278 333.056 8.555 10.055c1 1.167 2.5 1.667 4 1.333 2.611-.611 3.889-3.555 2.611-5.888l-4.777-8.5"/>
  <path fill="#E556A8" d="m396.556 327.889 2.888 7.055 1.389-1c1.278-.944 3.056-.777 4.167.334 1.333 1.333 1.222 3.555-.222 4.778l-1.778 1.5c-1.5 1.222-3.389 1.888-5.333 1.722-2.5-.167-4.778-1.611-5.945-3.834l-5.111-9.5"/>
  <path stroke="#17005E" stroke-linecap="round" stroke-linejoin="round" stroke-miterlimit="10" stroke-width="1.5" d="m396.556 327.889 2.888 7.055 1.389-1c1.278-.944 3.056-.777 4.167.334 1.333 1.333 1.222 3.555-.222 4.778l-1.778 1.5c-1.5 1.222-3.389 1.888-5.333 1.722-2.5-.167-4.778-1.611-5.945-3.834l-5.111-9.5"/>
  <path fill="#17005E" stroke="#17005E" stroke-linecap="round" stroke-linejoin="round" stroke-miterlimit="10" stroke-width="1.5" d="M394.722 281.056 389.833 305l-3.944-2.5 8.833-21.444Z"/>
  <path fill="#E556A8" stroke="#17005E" stroke-linecap="round" stroke-linejoin="round" stroke-miterlimit="10" stroke-width="1.5" d="M142.944 168v7h-16.5a3.486 3.486 0 0 1-3.5-3.5c0-1.944 1.556-3.5 3.5-3.5h16.5Z"/>
  <path fill="#E556A8" stroke="#17005E" stroke-linecap="round" stroke-linejoin="round" stroke-miterlimit="10" stroke-width="1.5" d="M148.222 168v7h-16.555a3.485 3.485 0 0 1-3.5-3.5c0-1.944 1.555-3.5 3.5-3.5h16.555Zm33.056 2.889-6.056-11.667c-.778-1.5-2.278-2.389-4-2.389h-10.944a3.106 3.106 0 0 0-3.111 3.111 3.106 3.106 0 0 0 3.111 3.112h5.444a7.778 7.778 0 0 0 7.667 7.777l7.889.056Z"/>
  <path fill="#E556A8" stroke="#17005E" stroke-linecap="round" stroke-linejoin="round" stroke-miterlimit="10" stroke-width="1.5" d="M137.944 168h38.889c2.889 0 5.723.833 8.111 2.389l52.556 34.055 30 19.834-21.833 16.833c-6.111 4.722-14.889 4-20.167-1.611l-54.444-58.167c-5.889-1.889-15-4.833-19.5-6.333H138a3.486 3.486 0 0 1-3.5-3.5c0-1.944 1.556-3.5 3.444-3.5Z"/>
  <path fill="#17005E" stroke="#17005E" stroke-linecap="round" stroke-linejoin="round" stroke-miterlimit="10" stroke-width="1.5" d="m237.5 204.444 27.722 21.056-6.166 4.944-21.556-26Zm-66.444-23.166L187 188l3.611 14.167-19.555-20.889Z"/>
  <path fill="#8636CC" stroke="#17005E" stroke-linecap="round" stroke-linejoin="round" stroke-miterlimit="10" stroke-width="1.5" d="m237.5 204.444 30-32.611c5.889-6.389 14.222-10.055 22.889-10.055h45.222c6.611 0 13 2.111 18.333 6l34.945 25.5c2.055 1.5 2.444 4.444.889 6.444l-22.056 27.722-21.889-15.833V286.5h-87.389l8.612-58.722-29.556-23.334Z"/>
  <path fill="#17005E" stroke="#17005E" stroke-linecap="round" stroke-linejoin="round" stroke-miterlimit="10" stroke-width="1.5" d="M293.778 161.833h26.778C320.445 169.111 314.5 175 307.167 175c-7.334 0-13.278-5.889-13.389-13.167Zm-26.722 65.945 5.666-36.556L262 215.5l5.056 12.278Zm78.722-16.111-6.278-24 28.222 39.833-21.944-15.833Z"/>
  <path fill="#17005E" d="M324.278 184.5h-4.834c-.5 0-.5-.778 0-.778h4.834a.39.39 0 0 1 0 .778Zm-14.056 6v4.833c0 .5-.778.5-.778 0V190.5c0-.5.778-.5.778 0Zm10.722 12.333v3.223c0 .5-.777.5-.777 0v-3.223c0-.5.777-.5.777 0Zm7.945 7.223 3.778 3.777c.333.334-.223.889-.556.556l-3.778-3.778c-.389-.333.167-.889.556-.555Zm-7 13.388-4.833 4.834c-.334.333-.889-.222-.556-.556l4.833-4.833c.389-.333.945.222.556.555Zm-14.333-4v4.278c0 .5-.778.5-.778 0v-4.278c0-.5.778-.5.778 0Zm-13-5.611-4.278 4.278c-.334.333-.889-.222-.556-.555l4.278-4.278c.389-.334.944.166.556.555ZM286 205.778l-1.611 1.611c-.333.333-.889-.222-.556-.556l1.611-1.611c.389-.333.945.222.556.556Zm-1.611-12.834a4893.784 4893.784 0 0 1-3.222-3.222c-.334-.333.222-.889.555-.555l3.222 3.222c.334.333-.222.889-.555.555ZM282.778 179l-1.611-1.611c-.334-.333.222-.889.555-.556l1.611 1.611c.334.389-.222.889-.555.556Zm-6.945-8.056-2.666 2.667c-.334.333-.889-.222-.556-.555l2.667-2.667c.333-.333.889.222.555.555Zm-6.833 11v3.223c0 .5-.778.5-.778 0v-3.223c0-.5.778-.5.778 0Zm19.389.667h3.778c.5 0 .5.778 0 .778h-3.778c-.5 0-.5-.778 0-.778Zm9 11.111v3.222c0 .5-.778.5-.778 0v-3.222c0-.5.778-.5.778 0Zm10.555-12.055 2.667-2.667c.333-.333.889.222.556.556l-2.667 2.666c-.333.334-.889-.222-.556-.555ZM324.556 172l1.611-1.611c.333-.333.889.222.555.555l-1.611 1.612c-.333.388-.889-.167-.555-.556ZM337 174.444v2.167c0 .5-.778.5-.778 0v-2.167c0-.5.778-.5.778 0Zm-2.278-7.222-2.666-2.666c-.334-.334.222-.889.555-.556l2.667 2.667c.389.333-.167.889-.556.555Zm13.556 4v3.222c0 .5-.778.5-.778 0v-3.222c0-.5.778-.5.778 0Zm9.111 8.556v6.444c0 .5-.778.5-.778 0v-6.444c0-.5.778-.5.778 0Zm12.722 8.333 2.667 2.667c.333.333-.222.889-.556.555l-2.666-2.666c-.334-.389.222-.945.555-.556Zm-3.722 10.722-1.611 1.611c-.334.334-.889-.222-.556-.555l1.611-1.611c.334-.334.889.166.556.555Zm2.222 11.5v4.834c0 .5-.778.5-.778 0v-4.834c0-.5.778-.5.778 0Zm7.945-11 2.666-2.666c.334-.334.889.222.556.555l-2.667 2.667c-.389.389-.944-.167-.555-.556Zm7.722-3.333h3.222c.5 0 .5.778 0 .778h-3.222c-.5 0-.5-.778 0-.778Zm-8.167 9.5v3.222c0 .5-.778.5-.778 0V205.5c0-.5.778-.5.778 0Zm-21.278-6.556h-2.166c-.5 0-.5-.777 0-.777h2.166c.5 0 .5.777 0 .777Zm8.167-17v-2.166c0-.5.778-.5.778 0v2.166c0 .5-.778.5-.778 0Zm-16.722 2.556h-2.667c-.5 0-.5-.778 0-.778h2.667c.5 0 .5.778 0 .778Zm-14.222 12.167 1.611 1.611c.333.333-.223.889-.556.555l-1.611-1.611c-.333-.333.222-.889.556-.555Zm10.333 24.944v5.889c0 .5-.778.5-.778 0v-5.889c0-.5.778-.5.778 0Zm-8.167 11.5-2.166 2.167c-.334.333-.889-.222-.556-.556l2.167-2.166c.389-.334.889.222.555.555Zm.111 11.5v4.278c0 .5-.777.5-.777 0v-4.278c0-.5.777-.5.777 0ZM331 255.056l-1.611 1.611c-.333.333-.889-.223-.556-.556l1.611-1.611c.389-.333.945.222.556.556Zm-12.056-3.612h-2.666c-.5 0-.5-.777 0-.777h2.666c.5 0 .5.777 0 .777Zm.278-13L316 241.667c-.333.333-.889-.223-.556-.556l3.223-3.222c.389-.333.889.222.555.555Zm-11.5-.944h-2.666c-.5 0-.5-.778 0-.778h2.666c.5 0 .5.778 0 .778Zm-9.833-5.222v5.333c0 .5-.778.5-.778 0v-5.333c0-.5.778-.5.778 0Zm-9.111 7.5v3.778c0 .5-.778.5-.778 0v-3.778c0-.5.778-.5.778 0Zm11.944 11.666h-3.778c-.5 0-.5-.777 0-.777h3.778c.5 0 .5.777 0 .777Zm-17.389-20.5-2.166 2.167c-.334.333-.889-.222-.556-.555l2.167-2.167c.333-.333.889.222.555.555Zm-9.111-6.388-1.055 1.055c-.334.333-.889-.222-.556-.555l1.056-1.056c.389-.389.889.167.555.556Zm67.056 24.333v2.167c0 .5-.778.5-.778 0v-2.167c0-.5.778-.5.778 0Zm1.222 14.889h-5.333c-.5 0-.5-.778 0-.778h5.333c.5 0 .5.778 0 .778Zm-.667 7.611v3.222c0 .5-.777.5-.777 0v-3.222c0-.5.777-.5.777 0Zm-4.389 6.167-2.166-2.167c-.334-.333.222-.889.555-.556L338 277c.333.389-.222.944-.556.556Zm-13.388-6.389-2.167 2.166c-.333.334-.889-.222-.556-.555l2.167-2.167c.333-.389.889.167.556.556Zm18.333 12.555v1.611c0 .5-.778.5-.778 0v-1.611c0-.5.778-.5.778 0ZM329.111 282h-3.778c-.5 0-.5-.778 0-.778h3.778c.5 0 .5.778 0 .778Zm-18.055 1.722v-3.778c0-.5.777-.5.777 0v3.778c0 .5-.777.5-.777 0Zm-5.778-11.5-4.834 4.834c-.333.333-.888-.223-.555-.556l4.833-4.833c.389-.334.945.222.556.555Zm-14.445 6.945-1.611-1.611c-.333-.334.222-.889.556-.556l1.611 1.611c.333.389-.222.945-.556.556ZM280.111 269l-2.167 2.167c-.333.333-.888-.223-.555-.556l2.167-2.167c.388-.333.888.223.555.556Zm38-7.5-3.778-3.778c-.333-.333.223-.889.556-.555l3.778 3.777c.389.389-.167.889-.556.556Zm-6.833.278v3.778c0 .5-.778.5-.778 0v-3.778c0-.5.778-.5.778 0Zm-8.389 1.444h-3.222c-.5 0-.5-.778 0-.778h3.222c.5 0 .5.778 0 .778Zm-12.056-3.833L289.222 261c-.333.333-.889-.222-.555-.556l1.611-1.611c.333-.389.889.167.555.556Zm-11.777-5.945-2.167 2.167c-.333.333-.889-.222-.556-.555l2.167-2.167c.333-.333.889.222.556.555Zm-6.167-7.888h-4.278c-.5 0-.5-.778 0-.778h4.278c.5 0 .5.778 0 .778Zm1.833-28.5-1.611-1.612c-.333-.333.222-.888.556-.555l1.611 1.611c.389.333-.167.889-.556.556Zm30.056-12.334 4.278 4.278c.333.333-.223.889-.556.556a8627.308 8627.308 0 0 0-4.278-4.278c-.389-.389.167-.945.556-.556Zm14.444-14.5L323 194c.333.333-.222.889-.556.556l-3.777-3.778c-.334-.334.222-.889.555-.556Zm12.834-6.944 1.055 1.055c.333.334-.222.889-.555.556a525.68 525.68 0 0 1-1.056-1.056c-.333-.389.222-.889.556-.555Zm-41.334-11V168c0-.5.778-.5.778 0v4.278c0 .5-.778.5-.778 0Zm-6.333-6.111a525.68 525.68 0 0 0-1.056-1.056c-.333-.333.223-.889.556-.555l1.055 1.055c.334.333-.222.889-.555.556Zm-22.5 25.666 1.611 1.611c.333.334-.222.889-.556.556l-1.611-1.611c-.333-.333.223-.889.556-.556Zm-6.945-1.555-1.055 1.055c-.333.334-.889-.222-.556-.555l1.056-1.056c.333-.389.889.167.555.556Zm6.445-9.167 1.055 1.056c.334.333-.222.889-.555.555l-1.056-1.055c-.389-.334.167-.889.556-.556Zm-5.111 19.167h3.778c.5 0 .5.778 0 .778h-3.778c-.5.055-.5-.778 0-.778Zm.778 7.111L256 208.444c-.333.334-.889-.222-.556-.555l1.056-1.056c.389-.333.944.223.556.556Zm-.5 6.944 2.166 2.167c.334.333-.222.889-.555.556L256 214.889c-.333-.333.167-.889.556-.556Zm-9.778-8.833v-3.778c0-.5.778-.5.778 0v3.778c0 .5-.778.5-.778 0Zm-3.111-1.833-1.056 1.055c-.333.334-.889-.222-.555-.555l1.055-1.056c.389-.389.945.167.556.556Zm23.722 63.444v2.167c0 .5-.778.5-.778 0v-2.167c0-.5.778-.5.778 0Zm5.222 10.445L271 279.167c-.333.333-.889-.223-.556-.556l1.612-1.611c.388-.333.888.222.555.556Zm-8.055 4.833-1.612-1.611c-.333-.334.223-.889.556-.556l1.611 1.611c.333.389-.167.945-.555.556Zm2.666-24.611-1.611-1.611c-.333-.334.222-.889.556-.556l1.611 1.611c.389.334-.167.889-.556.556Zm11.278 21.944-1.055 1.056c-.334.333-.889-.222-.556-.556l1.055-1.055c.389-.334.945.222.556.555Zm11.222-9.111-2.666-2.667c-.334-.333.222-.888.555-.555l2.667 2.667c.389.388-.167.888-.556.555Zm69.278-63.5v2.667c0 .5-.778.5-.778 0v-2.667c0-.5.778-.5.778 0Zm-.167-14.167 2.167-2.166c.333-.334.889.222.556.555l-2.167 2.167c-.333.333-.889-.222-.556-.556Z"/>
  <path fill="#17005E" stroke="#17005E" stroke-linecap="round" stroke-linejoin="round" stroke-miterlimit="10" stroke-width="1.5" d="M317.333 121.389h1.945c4.166 0 7.278 3.944 6.278 8L323 139.778c-.611 2.389-2.778 4.111-5.222 4.111h-1.667l1.222-22.5Z"/>
  <path fill="#E556A8" stroke="#17005E" stroke-linecap="round" stroke-linejoin="round" stroke-miterlimit="10" stroke-width="1.5" d="M301.278 115.167c8.389 0 15.444 5.389 18.055 12.833h1.778c2.333 0 4.278 1.944 4.278 4.278 0 2.333-1.945 4.278-4.278 4.278h-.833c-1.167 9.444-9.222 16.777-18.945 16.777-10.555 0-19.111-8.555-19.111-19.111-.055-10.5 8.5-19.055 19.056-19.055Z"/>
  <path fill="#E556A8" stroke="#17005E" stroke-linecap="round" stroke-linejoin="round" stroke-miterlimit="10" stroke-width="1.5" d="M301.278 115.167c8.389 0 15.444 5.389 18.055 12.833h1.778c2.333 0 4.278 1.944 4.278 4.278 0 2.333-1.945 4.278-4.278 4.278h-.833c-1.167 9.444-9.222 16.777-18.945 16.777-10.555 0-19.111-8.555-19.111-19.111-.055-10.5 8.5-19.055 19.056-19.055Z"/>
  <path fill="#17005E" d="M322.444 131.5c-1.055.222-2 .667-2.888 1.333v-.666c.777.5 1.555 1.055 2.333 1.555.389.278 0 .945-.389.667-.778-.5-1.556-1.056-2.333-1.556-.278-.166-.223-.5 0-.666.944-.667 1.944-1.167 3.111-1.389.444-.111.666.611.166.722Z"/>
  <path fill="#17005E" stroke="#17005E" stroke-linecap="round" stroke-linejoin="round" stroke-miterlimit="10" stroke-width="1.5" d="M318.389 124.111h-27.278c-6.722 0-12.167-5.444-12.167-12.167a3.047 3.047 0 0 1 3.056-3.055h26.5c6.944 0 12.056 6.555 10.389 13.278l-.5 1.944Z"/>
  <path fill="#17005E" stroke="#17005E" stroke-linecap="round" stroke-linejoin="round" stroke-miterlimit="10" stroke-width="1.5" d="m307.889 122.667.833 2.166c.667 1.834 2.445 3.056 4.389 3.056l6.278.111v-5.778l-11.5.445Zm-11.5 10.055c0 .611.5 1.111 1.111 1.111s1.111-.5 1.111-1.111-.5-1.111-1.111-1.111-1.111.5-1.111 1.111Zm-12 0c0 .611.5 1.111 1.111 1.111s1.111-.5 1.111-1.111-.5-1.111-1.111-1.111-1.111.5-1.111 1.111Z"/>
  <path stroke="#17005E" stroke-linecap="round" stroke-linejoin="round" stroke-miterlimit="10" stroke-width="1.5" d="M290.667 129.111v4.222a1.933 1.933 0 0 1-1.945 1.945 1.932 1.932 0 0 0-1.944 1.944 3.781 3.781 0 0 0 3.778 3.778h1.611"/>
  <path fill="#17005E" d="M315.722 130.389h-2.944c-.5 0-.5-.778 0-.778h2.944c.5 0 .5.778 0 .778Zm-.055 1.667h-2.056c-.5 0-.5-.778 0-.778h2.056c.5 0 .5.778 0 .778Zm-.278 1.777h-.889c-.5 0-.5-.777 0-.777h.889c.5 0 .5.777 0 .777Z"/>
  <path fill="#17005E" stroke="#17005E" stroke-linecap="round" stroke-linejoin="round" stroke-miterlimit="10" stroke-width="1.5" d="M297.444 143.278 290.889 145l3 2.333c.833.611 1.889.889 2.889.667 1.666-.333 2.722-1.889 2.444-3.556-.111-.833-.944-1.333-1.778-1.166ZM101.278 168h66.611v-2.778c0-1.833-1.5-3.278-3.278-3.278h-63.278V168h-.055Z"/>
  <path fill="#17005E" stroke="#17005E" stroke-linecap="round" stroke-linejoin="round" stroke-miterlimit="10" stroke-width="1.5" d="M100.444 168h47.223l-10.889-38.222c-.334-1.111-1.278-1.834-2.445-1.834H88.111c-1.666 0-2.889 1.612-2.444 3.223L95 163.944c.778 2.389 2.945 4.056 5.444 4.056Z"/>
  <path fill="#FDE7D0" stroke="#17005E" stroke-linecap="round" stroke-linejoin="round" stroke-miterlimit="10" stroke-width="1.5" d="M100.556 158h40l-7-24.611c-.223-.722-.834-1.167-1.556-1.167H92.667c-1.056 0-1.834 1.056-1.556 2.056l6 21.111a3.568 3.568 0 0 0 3.445 2.611Z"/>
  <path fill="#FDE7D0" stroke="#17005E" stroke-linecap="round" stroke-linejoin="round" stroke-miterlimit="10" stroke-width="1.5" d="m117.222 140.722-5.555 4.111c-.389.278-.167.889.333 1.111l7.833 3.223c.556.222 1-.111.834-.611l-2.278-7.389c-.111-.445-.778-.723-1.167-.445Z"/>
  <path fill="#17005E" stroke="#17005E" stroke-linecap="round" stroke-linejoin="round" stroke-miterlimit="10" stroke-width="1.5" d="m105.167 142.333-3.667 2.611c-.222.167-.111.612.222.723l5.223 2.222c.333.167.666-.056.555-.389l-1.611-4.833c-.056-.334-.5-.556-.722-.334Zm-3.778 5.445-1.611-4.834h-.945l1.611 4.834h.945Zm25.389.333 3.667-2.611c.222-.167.111-.611-.223-.722L125 142.556c-.333-.167-.667.055-.555.388l1.611 4.834c0 .333.444.5.722.333Zm3.778-5.444 1.555 4.833h1l-1.611-4.833h-.944Z"/>
  <path fill="#FDE7D0" stroke="#17005E" stroke-linecap="round" stroke-linejoin="round" stroke-miterlimit="10" stroke-width="1.5" d="m184.944 195.222 14.556-17.611-5.889-3.778-14.333 16.445 5.666 4.944Z"/>
  <path fill="#FDE7D0" stroke="#17005E" stroke-linecap="round" stroke-linejoin="round" stroke-miterlimit="10" stroke-width="1.5" d="M179.5 194.944c2.222 1.945 5.278 2.112 6.722.389 1.5-1.722.889-4.666-1.333-6.611-2.222-1.944-5.278-2.111-6.722-.389-1.5 1.723-.889 4.667 1.333 6.611Z"/>
  <path fill="#FDE7D0" stroke="#17005E" stroke-linecap="round" stroke-linejoin="round" stroke-miterlimit="10" stroke-width="1.5" d="M178.446 196.153c-2.224-1.931-2.82-4.887-1.331-6.601 1.489-1.714 4.499-1.538 6.723.393 2.223 1.932 2.819 4.887 1.331 6.601-1.489 1.715-4.499 1.539-6.723-.393Z"/>
  <path fill="#F48914" stroke="#17005E" stroke-linecap="round" stroke-linejoin="round" stroke-miterlimit="10" stroke-width="1.5" d="M179.444 195.056c1.389 1.222 3.334 1.333 4.278.277.945-1.111.556-2.944-.833-4.222-1.389-1.222-3.333-1.333-4.278-.278-1 1.111-.611 3 .833 4.223Z"/>
  <path stroke="#17005E" stroke-linecap="round" stroke-linejoin="round" stroke-miterlimit="10" stroke-width="3" d="M422.333 535.5H254.667m-25.167 0h-81.444"/>
  <path fill="#FAD1E8" d="m534.667 409.333-10.778-10.777a3.588 3.588 0 0 0-5.056 0l-.944.944a3.588 3.588 0 0 0 0 5.056l10.778 10.777a3.587 3.587 0 0 0 5.055 0l.945-.944a3.59 3.59 0 0 0 0-5.056Z"/>
  <path fill="#FDE7D0" d="M90.56 504.973a6.945 6.945 0 1 1 5.276-12.849 6.945 6.945 0 0 1-5.275 12.849Z"/>
  <path fill="#E9D1FA" d="M88.444 302.611c.278-.278.445-.611.445-1v-6.055h6.055c.778 0 1.445-.612 1.445-1.445v-7.444c0-.778-.611-1.445-1.445-1.445-.777 0-1.444.667-1.444 1.445v6.055h-6.056c-.777 0-1.444.611-1.444 1.445v6.055h-6.056c-.777 0-1.444.611-1.444 1.445 0 .777.611 1.444 1.444 1.444h7.445c.389-.055.778-.222 1.055-.5Z"/>
  <path fill="#E9D1FA" d="M83 297.222c.278-.278.444-.611.444-1v-6.055h6c.778 0 1.445-.667 1.445-1.445v-7.444c0-.778-.611-1.445-1.445-1.445-.777 0-1.444.611-1.444 1.445v6.055h-6.056c-.777 0-1.444.667-1.444 1.445v6.055h-6.056c-.777 0-1.444.611-1.444 1.445 0 .778.611 1.444 1.444 1.444h7.445c.5-.111.833-.278 1.11-.5ZM489.889 64.278c-.445 0-.889.166-1.222.5L483.444 70l-5.222-5.222c-.666-.667-1.778-.667-2.5 0l-6.5 6.5c-.666.666-.666 1.778 0 2.5.667.666 1.778.666 2.5 0l5.222-5.222 5.223 5.222c.666.666 1.777.666 2.5 0l5.222-5.222 5.222 5.222c.667.666 1.778.666 2.5 0 .667-.667.667-1.778 0-2.5l-6.5-6.5a1.723 1.723 0 0 0-1.222-.5Z"/>
  <path fill="#E9D1FA" d="M489.889 73.722c-.445 0-.889.167-1.222.5l-5.223 5.222-5.222-5.222c-.666-.666-1.778-.666-2.5 0l-6.5 6.5c-.666.667-.666 1.778 0 2.5.667.667 1.778.667 2.5 0L476.944 78l5.223 5.222c.666.667 1.777.667 2.5 0L489.889 78l5.222 5.222c.667.667 1.778.667 2.5 0 .667-.666.667-1.778 0-2.5l-6.5-6.5a1.723 1.723 0 0 0-1.222-.5Z"/>
  <path fill="#FAD1E8" d="M542.944 318.111c0 1.111.889 1.945 1.945 1.945a1.932 1.932 0 0 0 1.944-1.945 1.932 1.932 0 0 0-1.944-1.944c-1.056-.056-1.945.833-1.945 1.944Zm-6 0c0 1.111.889 1.945 1.945 1.945a1.932 1.932 0 0 0 1.944-1.945 1.932 1.932 0 0 0-1.944-1.944c-1.111-.056-1.945.833-1.945 1.944Zm-6.055 0c0 1.111.889 1.945 1.944 1.945a1.969 1.969 0 0 0 1.945-1.945 1.932 1.932 0 0 0-1.945-1.944 1.932 1.932 0 0 0-1.944 1.944Zm14-9.667a1.944 1.944 0 1 1-.001-3.889 1.944 1.944 0 0 1 .001 3.889Zm-7.945-1.944c0 1.111.889 1.944 1.945 1.944a1.931 1.931 0 0 0 1.944-1.944 1.968 1.968 0 0 0-1.944-1.944c-1.111 0-1.945.833-1.945 1.944Zm-4.055 1.944a1.944 1.944 0 1 1-.001-3.889 1.944 1.944 0 0 1 .001 3.889Zm10.055 3.834c0 1.111.889 1.944 1.945 1.944a1.932 1.932 0 0 0 1.944-1.944 1.933 1.933 0 0 0-1.944-1.945 1.969 1.969 0 0 0-1.945 1.945Zm-6 0c0 1.111.889 1.944 1.945 1.944a1.932 1.932 0 0 0 1.944-1.944 1.933 1.933 0 0 0-1.944-1.945 1.933 1.933 0 0 0-1.945 1.945Zm-6.055 0c0 1.111.889 1.944 1.944 1.944a1.969 1.969 0 0 0 1.945-1.944 1.933 1.933 0 0 0-1.945-1.945 1.969 1.969 0 0 0-1.944 1.945ZM98.778 90.333A3.225 3.225 0 0 0 102 93.556a3.224 3.224 0 0 0 3.222-3.223A3.224 3.224 0 0 0 102 87.111a3.224 3.224 0 0 0-3.222 3.222Zm-9.278 0a3.225 3.225 0 0 0 3.222 3.223 3.225 3.225 0 0 0 3.222-3.223 3.225 3.225 0 0 0-3.222-3.222 3.225 3.225 0 0 0-3.222 3.222Zm9.278 9.445A3.224 3.224 0 0 0 102 103a3.224 3.224 0 0 0 3.222-3.222A3.224 3.224 0 0 0 102 96.556c-1.778.055-3.222 1.444-3.222 3.222Zm-9.278 0A3.224 3.224 0 0 0 92.722 103a3.224 3.224 0 0 0 3.222-3.222 3.224 3.224 0 0 0-3.222-3.222C90.944 96.61 89.5 98 89.5 99.778Z"/>
  <path fill="#CFAFEB" stroke="#17005E" stroke-linecap="round" stroke-linejoin="round" stroke-miterlimit="10" stroke-width="1.5" d="M19.825 438.914h79.944c2.778 0 5-2.222 5-5v-53.222c0-2.778-2.222-5-5-5h-80a4.98 4.98 0 0 0-5 5v53.222c.056 2.778 2.278 5 5.056 5Z"/>
  <path fill="#FDE7D0" stroke="#17005E" stroke-linecap="round" stroke-linejoin="round" stroke-miterlimit="10" stroke-width="1.5" d="m66.158 394.192-14.278 8.222c-.944.556-.944 1.945 0 2.5l14.278 8.223c.945.555 2.167-.167 2.167-1.278v-16.445c0-1.111-1.222-1.777-2.167-1.222Z"/>
  <path fill="#17005E" stroke="#17005E" stroke-linecap="round" stroke-linejoin="round" stroke-miterlimit="10" stroke-width="1.5" d="M22.102 429.581c0 .556.445.945.945.945.5 0 .944-.445.944-.945a.936.936 0 0 0-.944-.944c-.5 0-.945.389-.945.944Z"/>
  <path stroke="#17005E" stroke-linecap="round" stroke-linejoin="round" stroke-miterlimit="10" stroke-width="1.5" d="M88.27 429.581H23.101m3.669-48.722h-6.723m6.723 2.778h-6.723m6.723 2.777h-6.723"/>
  <path fill="#F5A3D2" stroke="#17005E" stroke-linecap="round" stroke-linejoin="round" stroke-miterlimit="10" stroke-width="1.5" d="M93.491 427.692h4.89v3.778h-4.89v-3.778Z"/>
  <path fill="#FDE7D0" stroke="#17005E" stroke-linecap="round" stroke-linejoin="round" stroke-miterlimit="10" stroke-width="1.5" d="M488.692 159.008h100.667c2.778 0 5-2.222 5-5V86.231c0-2.778-2.222-5-5-5H488.692a4.98 4.98 0 0 0-5 5v67.722c0 2.778 2.222 5.055 5 5.055Z"/>
  <path fill="#DC4298" stroke="#17005E" stroke-linecap="round" stroke-linejoin="round" stroke-miterlimit="10" stroke-width="1.5" d="m546.859 103.953-17.611 10.111c-1.222.667-1.222 2.389 0 3.111l17.611 10.111c1.167.667 2.667-.166 2.667-1.555v-20.223c0-1.388-1.5-2.222-2.667-1.555Z"/>
  <path fill="#17005E" stroke="#17005E" stroke-linecap="round" stroke-linejoin="round" stroke-miterlimit="10" stroke-width="1.5" d="M538.081 147.508c0 .667.556 1.167 1.167 1.167s1.166-.555 1.166-1.167c0-.666-.555-1.166-1.166-1.166-.611 0-1.167.5-1.167 1.166Z"/>
  <path stroke="#17005E" stroke-linecap="round" stroke-linejoin="round" stroke-miterlimit="10" stroke-width="1.5" d="M574.081 147.508h-80.222m4.5-59.888h-8.278m8.278 3.388h-8.278m8.278 3.389h-8.278"/>
  <path fill="#E9D1FA" stroke="#17005E" stroke-linecap="round" stroke-linejoin="round" stroke-miterlimit="10" stroke-width="1.5" d="M580.47 145.175h6v4.611h-6v-4.611Z"/>
  <path fill="#DC4298" stroke="#17005E" stroke-linecap="round" stroke-linejoin="round" stroke-miterlimit="10" stroke-width="1.5" d="M441.616 511.684h94.222c2.778 0 5-2.223 5-5v-63.223c0-2.777-2.222-5-5-5h-94.222a4.98 4.98 0 0 0-5 5v63.223c0 2.722 2.222 5 5 5Z"/>
  <path fill="#E9D1FA" stroke="#17005E" stroke-linecap="round" stroke-linejoin="round" stroke-miterlimit="10" stroke-width="1.5" d="m496.06 459.85-16.556 9.5a1.718 1.718 0 0 0 0 2.945l16.556 9.5c1.111.666 2.5-.167 2.5-1.445v-19.055c.056-1.278-1.389-2.111-2.5-1.445Z"/>
  <path fill="#17005E" stroke="#17005E" stroke-linecap="round" stroke-linejoin="round" stroke-miterlimit="10" stroke-width="1.5" d="M463.56 500.85c0 .611.5 1.111 1.111 1.111s1.111-.5 1.111-1.111-.5-1.111-1.111-1.111-1.111.5-1.111 1.111Z"/>
  <path stroke="#17005E" stroke-linecap="round" stroke-linejoin="round" stroke-miterlimit="10" stroke-width="1.5" d="M521.727 500.85h-75.556m4.278-56.389h-7.833m7.833 3.167h-7.833m7.833 3.167h-7.833"/>
  <path fill="#FDE7D0" stroke="#17005E" stroke-linecap="round" stroke-linejoin="round" stroke-miterlimit="10" stroke-width="1.5" d="M527.727 498.684h5.666v4.389h-5.666v-4.389Z"/>
  <defs>
    <filter id="a" width="557.6" height="558.8" x="27.2" y="11.6" color-interpolation-filters="sRGB" filterUnits="userSpaceOnUse">
      <feFlood flood-opacity="0" result="BackgroundImageFix"/>
      <feBlend in="SourceGraphic" in2="BackgroundImageFix" result="shape"/>
      <feGaussianBlur result="effect1_foregroundBlur_1_202" stdDeviation="50"/>
    </filter>
  </defs>
</svg>
