<svg id="Layer_1" data-name="Layer 1" xmlns="http://www.w3.org/2000/svg" xmlns:xlink="http://www.w3.org/1999/xlink" viewBox="0 0 594.21 41.42"><defs><style>.cls-1{fill:none;}.cls-2{fill:#fff;}.cls-3{fill:#547dbf;}.cls-4{fill:#ea4435;}.cls-5{fill:#f9bc15;}.cls-6{fill:#33a852;}.cls-7{clip-path:url(#clip-path);}.cls-10,.cls-8,.cls-9{fill-rule:evenodd;}.cls-8{fill:url(#linear-gradient);}.cls-9{fill:url(#linear-gradient-2);}.cls-11{clip-path:url(#clip-path-2);}.cls-12{fill:#3879be;}.cls-13{fill:#94bf47;}.cls-14{fill:#5e8e3e;}</style><clipPath id="clip-path"><rect class="cls-1" x="12.6" y="0.05" width="142" height="34.5"/></clipPath><linearGradient id="linear-gradient" x1="21.36" y1="635.99" x2="48.78" y2="635.99" gradientTransform="translate(-8.36 -608.62)" gradientUnits="userSpaceOnUse"><stop offset="0" stop-color="#7156a4"/><stop offset="1" stop-color="#51caf5"/></linearGradient><linearGradient id="linear-gradient-2" x1="21.97" y1="616.93" x2="48.23" y2="616.93" gradientTransform="translate(-8.36 -608.62)" gradientUnits="userSpaceOnUse"><stop offset="0" stop-color="#c04f9d"/><stop offset="1" stop-color="#ffc908"/></linearGradient><clipPath id="clip-path-2"><rect class="cls-1" x="179.21" y="4.57" width="137.93" height="32"/></clipPath></defs><g id="Layer_2" data-name="Layer 2"><g id="Layer_1-2" data-name="Layer 1-2"><rect class="cls-2" x="12.6" y="0.3" width="569.01" height="41.12"/><rect class="cls-1" x="66.18" y="-31.7" width="217.99" height="64"/><path class="cls-3" d="M474.73,19.83v-4.3H489a14.7,14.7,0,0,1,.24,2.66c0,3.12-.86,7.1-3.68,9.84s-6.17,4.37-10.86,4.37a15.51,15.51,0,1,1-1.11-31,10.28,10.28,0,0,1,1.11,0,14.94,14.94,0,0,1,10.71,4.3l-3.05,3a11.22,11.22,0,1,0-7.66,19.54,10.56,10.56,0,0,0,7.9-3.13,8.83,8.83,0,0,0,2.26-5.23Z"/><path class="cls-4" d="M510.83,22.4a10,10,0,1,1-10.08-10,9.88,9.88,0,0,1,10.08,9.67Zm-4.46,0a5.64,5.64,0,0,0-11.25-.83,5.75,5.75,0,0,0,0,.83,5.64,5.64,0,1,0,11.25,0Z"/><path class="cls-5" d="M532.7,22.4a10,10,0,1,1-10.08-10,9.88,9.88,0,0,1,10.08,9.67Zm-4.45,0A5.64,5.64,0,1,0,517,21.57a5.75,5.75,0,0,0,0,.83,5.64,5.64,0,1,0,11.25,0Z"/><path class="cls-3" d="M553.64,13V31c0,7.34-4.38,10.39-9.53,10.39a9.48,9.48,0,0,1-8.83-6l3.83-1.56a5.56,5.56,0,0,0,5,3.59c3.36,0,5.39-2.11,5.39-5.86V30.14h-.16A6.8,6.8,0,0,1,544,32.4a9.91,9.91,0,0,1-9.53-9.92c0-5.62,4.61-10.08,9.53-10.08a7,7,0,0,1,5.31,2.27h.16V13Zm-3.83,9.45c0-3.51-2.34-6.09-5.39-6.09a6.08,6.08,0,0,0,0,12.11c3.05,0,5.39-2.58,5.39-6Z"/><path class="cls-6" d="M556.68,2.56h4.38v29.3h-4.38Z"/><path class="cls-4" d="M578,25.69,581.45,28a10.1,10.1,0,0,1-8.36,4.37,9.76,9.76,0,0,1-9.92-9.6v-.4c0-5.93,4.3-10,9.45-10s7.74,4.14,8.52,6.41l.47,1.09-13.33,5.55a5,5,0,0,0,4.84,3.05A5.66,5.66,0,0,0,578,25.69Zm-10.47-3.6,8.91-3.67a3.79,3.79,0,0,0-3.67-2.12,5.42,5.42,0,0,0-5.25,5.58C567.53,22,567.54,22,567.54,22.09Z"/><g class="cls-7"><path class="cls-8" d="M13,25.49l5.06-3.87c2.69,3.51,5.54,5.12,8.72,5.12s5.94-1.59,8.51-5.08l5.13,3.79c-3.7,5-8.31,7.67-13.64,7.67S16.82,30.49,13,25.49Z"/><path class="cls-9" d="M26.77,8.65l-9,7.76-4.16-4.83L26.79.21,39.87,11.59,35.69,16.4Z"/><path d="M75,6.77h-5.1V28H75Z"/><path class="cls-10" d="M59.56,28.11A10.51,10.51,0,0,1,52,25.19a10.15,10.15,0,0,1-3-7.6A10.43,10.43,0,0,1,59.18,6.87h.41a11.06,11.06,0,0,1,8.83,4.07L65.1,14.42a7,7,0,0,0-5.17-2.57,5.37,5.37,0,0,0-4,1.62,5.61,5.61,0,0,0-1.58,4.09,5.58,5.58,0,0,0,1.58,4,5.49,5.49,0,0,0,4,1.59,6.74,6.74,0,0,0,5.29-2.65l3.45,3.32a11,11,0,0,1-3.82,3.09A11.68,11.68,0,0,1,59.56,28.11Z"/><path class="cls-10" d="M82.62,8.47A2.76,2.76,0,1,1,79.86,5.7a2.77,2.77,0,0,1,2.76,2.77Zm-.21,4H77.28V28h5.1Z"/><path class="cls-10" d="M92.28,28.14a8,8,0,0,1-5.9-2.25,7.83,7.83,0,0,1-2.26-5.79,7.72,7.72,0,0,1,2.28-5.8,8.1,8.1,0,0,1,5.95-2.25,7.72,7.72,0,0,1,7.33,4.48l-3.93,2.06a3.63,3.63,0,0,0-3.29-2,3.38,3.38,0,0,0-2.53,1,3.48,3.48,0,0,0-1,2.48,3.4,3.4,0,0,0,3.27,3.52h.18a3.6,3.6,0,0,0,3.28-2l3.93,2.34A8.08,8.08,0,0,1,92.28,28.14Z"/><path class="cls-10" d="M106,6.77h-5.1V28H106V22.61l.6-.56,4.66,6h5.93L110,18.88l6.81-6.35H110.6l-4.6,4.3Z"/><path class="cls-10" d="M118.11,20V6.77h5.32V19.69c0,2.31,1.34,3.43,3.29,3.43a3.11,3.11,0,0,0,3.3-3.43V6.77h5.31V20c0,6.07-4.26,8.35-8.61,8.35S118.11,26.06,118.11,20Z"/><path class="cls-10" d="M146.81,28.44c4.1,0,7.43-3.61,7.43-8.07s-3.33-8.07-7.43-8.07a7,7,0,0,0-4.47,1.62v-1.4h-4.89V34.4h4.89V26.83A7.14,7.14,0,0,0,146.81,28.44Zm-4.47-8.06h0A3.51,3.51,0,1,1,145.85,24a3.56,3.56,0,0,1-3.51-3.61v0Z"/></g><g class="cls-11"><path class="cls-12" d="M217.92,11.37h6.66c5.7,0,9.31,3.68,9.31,9.42s-3.61,9.41-9.31,9.41h-6.66Zm6.51,15.4c3.59,0,5.56-2.3,5.56-6s-2-6-5.56-6h-2.61v12Z"/><path class="cls-12" d="M244,20.3a3.62,3.62,0,0,0-1.91-.45,2.49,2.49,0,0,0-2.61,1.93v8.49h-3.79V16.5h3.81v1.35a3.84,3.84,0,0,1,4.5-1.42Z"/><path class="cls-12" d="M251.58,30.54c-4,0-6.73-3-6.73-7.16s2.74-7.19,6.73-7.19,6.7,2.94,6.7,7.19S255.57,30.54,251.58,30.54Zm0-11.11c-1.91,0-2.94,1.65-2.94,3.95s1,3.94,2.94,3.94,2.94-1.66,2.94-3.94S253.47,19.43,251.58,19.43Z"/><path class="cls-12" d="M263.74,35.3h-3.81V16.5h3.81v1.14a4.68,4.68,0,0,1,3.43-1.43c4,0,6.26,3.31,6.26,7.19s-2.26,7.15-6.26,7.15a4.75,4.75,0,0,1-3.43-1.43Zm0-9.68a2.86,2.86,0,0,0,2.57,1.6c2.06,0,3.29-1.65,3.29-3.84s-1.23-3.86-3.29-3.86a2.87,2.87,0,0,0-2.57,1.6Z"/><path class="cls-12" d="M278.91,30.22h-3.85V10.3h3.85v7.37a4.7,4.7,0,0,1,3.44-1.43c4,0,6.23,3.25,6.23,7.19s-2.24,7.15-6.23,7.15a4.78,4.78,0,0,1-3.44-1.43Zm0-4.6a2.79,2.79,0,0,0,2.57,1.6c2.06,0,3.29-1.65,3.29-3.84s-1.23-3.86-3.29-3.86a2.87,2.87,0,0,0-2.57,1.6Z"/><path class="cls-12" d="M296.67,30.57c-4,0-6.73-2.94-6.73-7.15s2.74-7.19,6.73-7.19,6.72,2.94,6.72,7.19S300.65,30.57,296.67,30.57Zm0-11.11c-1.91,0-2.94,1.66-2.94,4s1,3.93,2.94,3.93,2.95-1.65,2.95-3.93S298.57,19.46,296.67,19.46Z"/><path class="cls-12" d="M311.94,23.14l5,7.1h-4.21l-2.94-4.3-3,4.3h-4l4.94-7-4.65-6.71h4.2l2.65,3.9,2.69-3.9h4Z"/><path class="cls-12" d="M189.28,4.92,179.4,11.3l6.88,5.53,10-6.16Z"/><path class="cls-12" d="M179.4,22.24l9.88,6.51L196.19,23l-10-6.17Z"/><path class="cls-12" d="M196.22,23l6.92,5.75L213,22.3l-6.84-5.48Z"/><path class="cls-12" d="M213,11.35l-9.87-6.43-6.92,5.75,9.95,6.16Z"/><path class="cls-12" d="M196.28,24.23l-7,5.75-3-1.93v2.17l10,5.94,9.9-5.94V28.05l-3,1.93Z"/></g><path class="cls-13" d="M358.76,9.24a.27.27,0,0,0-.27-.25h-2.33s-1.87-1.79-2.05-2a.73.73,0,0,0-.67-.09l-1,.3A6.16,6.16,0,0,0,352,6.1a3.18,3.18,0,0,0-2.72-2,.53.53,0,0,0-.25,0,.43.43,0,0,0-.11-.12,2.47,2.47,0,0,0-2-.78c-1.5,0-3,1.14-4.25,3.08a12.63,12.63,0,0,0-1.7,4.4c-1.73.54-3,.92-3,.92-.88.27-.9.29-1,1.12-.05.63-2.34,18.36-2.34,18.36l19.24,3.33,8.33-2.07S358.79,9.39,358.76,9.24Zm-7.23-1.78c-.45.14-.95.29-1.48.47a8.51,8.51,0,0,0-.45-2.74C350.74,5.37,351.28,6.67,351.53,7.46Zm-2.5.77-3.21,1a7.73,7.73,0,0,1,1.62-3.14,3.11,3.11,0,0,1,1.08-.79A6.51,6.51,0,0,1,349,8.23Zm-2.06-4a1.43,1.43,0,0,1,.9.25,3.73,3.73,0,0,0-1.17.92,8.72,8.72,0,0,0-2,4.18l-2.63.81C342.61,8,344.65,4.3,347,4.3Z"/><path class="cls-14" d="M358.49,9h-2.33s-1.87-1.79-2.05-2a.32.32,0,0,0-.24-.11V34.45l8.33-2.07L358.79,9.24A.33.33,0,0,0,358.49,9Z"/><path class="cls-2" d="M349.28,13.3l-1,3.62a5.17,5.17,0,0,0-2.36-.41c-1.89.12-1.89,1.31-1.89,1.6.12,1.62,4.36,2,4.61,5.78.18,3-1.57,5-4.14,5.19a6.35,6.35,0,0,1-4.74-1.64l.66-2.77a5.84,5.84,0,0,0,3.05,1.19,1.19,1.19,0,0,0,1.17-1.21v-.07c-.14-2.11-3.6-2-3.82-5.46-.18-2.92,1.73-5.86,6-6.13A4.92,4.92,0,0,1,349.28,13.3Z"/><path d="M373.48,21c-1-.52-1.46-1-1.46-1.57,0-.77.7-1.26,1.78-1.26a6.27,6.27,0,0,1,2.38.51l.88-2.69s-.81-.63-3.2-.63c-3.32,0-5.64,1.91-5.64,4.58,0,1.53,1.08,2.68,2.52,3.51,1.17.65,1.57,1.12,1.57,1.82s-.58,1.3-1.66,1.3a7.55,7.55,0,0,1-3.12-.83l-.95,2.7a7.25,7.25,0,0,0,3.76.94c3.41,0,5.88-1.68,5.88-4.72C376.2,23,375,21.84,373.48,21Z"/><path d="M387.1,15.3a5.08,5.08,0,0,0-4,2h-.05l1.46-7.64h-3.79L377,29.12h3.8l1.25-6.65c.5-2.51,1.8-4.07,3-4.07.86,0,1.2.59,1.2,1.42a8.79,8.79,0,0,1-.16,1.69l-1.44,7.61h3.8l1.47-7.82a15.05,15.05,0,0,0,.27-2.5C390.22,16.61,389.1,15.3,387.1,15.3Z"/><path d="M398.83,15.3c-4.58,0-7.62,4.14-7.62,8.74a5,5,0,0,0,4.65,5.32,3.88,3.88,0,0,0,.59,0c4.49,0,7.53-4,7.53-8.74C404,17.91,402.4,15.3,398.83,15.3ZM397,26.47c-1.3,0-1.84-1.1-1.84-2.49,0-2.18,1.16-5.68,3.16-5.68,1.35,0,1.8,1.17,1.8,2.29C400.11,22.88,399,26.47,397,26.47Z"/><path d="M413.73,15.3a5.19,5.19,0,0,0-4,2.27h-.05l.23-2h-3.38c-.15,1.37-.47,3.48-.76,5.05l-2.65,13.94h3.8L408,28.92h.09a4.55,4.55,0,0,0,2.23.49c4.47,0,7.39-4.58,7.39-9.21C417.66,17.6,416.51,15.3,413.73,15.3Zm-3.64,11.22a2.45,2.45,0,0,1-1.58-.57l.63-3.55c.45-2.38,1.69-4,3-4s1.53,1.08,1.53,2.09C413.68,23,412.22,26.52,410.09,26.52Z"/><path d="M423.1,9.84A2.17,2.17,0,0,0,420.92,12v.05a1.77,1.77,0,0,0,1.62,1.9h.18A2.15,2.15,0,0,0,425,11.89v-.14a1.82,1.82,0,0,0-1.73-1.91Z"/><path d="M417.77,29.1h3.8l2.58-13.48h-3.82Z"/><path d="M433.84,15.6h-2.65l.13-.63c.23-1.31,1-2.45,2.27-2.45a3.9,3.9,0,0,1,1.22.2l.74-3a4.73,4.73,0,0,0-2.07-.34,5.7,5.7,0,0,0-3.73,1.26,7,7,0,0,0-2.2,4.32l-.11.63h-1.78l-.56,2.87h1.77l-2,10.65h3.8l2-10.65h2.61Z"/><path d="M443,15.62s-2.38,6-3.44,9.28h-.05c-.06-1.06-.94-9.28-.94-9.28h-4L436.87,28a.78.78,0,0,1-.09.63,6.85,6.85,0,0,1-2.06,2.29A9.1,9.1,0,0,1,432.56,32l1.05,3.24a8.65,8.65,0,0,0,3.73-2.07,25.41,25.41,0,0,0,5-7.55l4.65-10Z"/></g></g></svg>